<?xml version="1.0" standalone="no"?>
<!DOCTYPE svg PUBLIC "-//W3C//DTD SVG 20010904//EN"
 "http://www.w3.org/TR/2001/REC-SVG-20010904/DTD/svg10.dtd">
<svg version="1.0" xmlns="http://www.w3.org/2000/svg"
 width="260.000000pt" height="260.000000pt" viewBox="0 0 260.000000 260.000000"
 preserveAspectRatio="xMidYMid meet">
<metadata>
Created by potrace 1.11, written by Peter Selinger 2001-2013
</metadata>
<g transform="translate(0.000000,260.000000) scale(0.100000,-0.100000)"
fill="#000000" stroke="none">
<path d="M1111 2541 c-12 -21 -5 -31 21 -31 60 0 141 -78 136 -130 -3 -23 -7
-25 -57 -24 -51 0 -56 3 -92 43 -45 50 -64 47 -45 -7 7 -20 14 -59 16 -87 1
-27 4 -61 5 -75 2 -14 3 -33 4 -42 2 -29 28 -20 51 17 40 64 120 102 128 60 8
-40 -20 -154 -48 -199 -50 -78 -119 -94 -208 -49 -31 17 -38 26 -40 55 -2 21
-12 44 -26 57 -21 20 -23 27 -15 64 12 56 50 90 85 77 14 -6 27 -10 29 -10 7
0 -14 72 -25 85 -20 25 -45 17 -88 -25 l-40 -41 -11 53 c-14 64 -40 110 -76
134 -23 15 -28 15 -36 3 -16 -26 -14 -104 6 -178 14 -55 14 -56 -18 -39 -39
20 -85 27 -103 13 -19 -14 -21 -55 -5 -98 l11 -29 31 26 c36 30 56 32 84 8 38
-32 46 -48 36 -74 -7 -18 -5 -33 5 -54 30 -57 -14 -124 -82 -124 -74 0 -183
57 -230 121 -28 39 -29 43 -8 64 19 19 43 13 96 -21 21 -13 42 -24 47 -24 13
0 3 27 -22 61 -13 19 -20 50 -24 108 -8 109 -27 124 -44 35 -10 -50 -39 -90
-76 -105 -32 -12 -50 -2 -62 33 -19 53 -13 91 23 148 52 83 30 85 -101 10 -70
-40 -69 -29 -12 -126 206 -352 270 -465 274 -483 3 -18 -1 -21 -30 -21 -29 0
-37 6 -56 40 -75 134 -274 59 -245 -93 6 -33 54 -88 86 -99 7 -2 14 -18 16
-36 3 -30 2 -32 -29 -32 -67 0 -72 -12 -73 -167 -2 -170 2 -176 92 -182 6 -1
10 -14 10 -31 0 -28 -2 -30 -37 -30 -61 0 -69 -21 -69 -176 0 -148 7 -163 72
-166 31 -1 35 -4 35 -30 0 -20 -5 -28 -19 -29 -10 -1 -22 -3 -28 -4 -5 -1 -14
-3 -19 -4 -5 0 -17 -8 -25 -17 -13 -12 -16 -41 -16 -150 0 -121 2 -136 20
-154 12 -12 33 -20 54 -20 32 0 34 -2 33 -34 -1 -26 -6 -36 -22 -40 -69 -18
-107 -128 -65 -194 53 -85 184 -80 228 9 36 72 7 154 -64 184 -28 12 -34 19
-34 44 0 27 3 31 29 31 16 0 39 8 51 18 22 18 23 26 24 155 0 151 -6 169 -62
173 -15 1 -31 3 -35 3 -5 1 -7 13 -5 28 2 22 9 28 30 30 43 3 68 21 69 51 5
123 3 231 -4 252 -11 31 -24 40 -64 40 -30 0 -33 3 -33 30 0 17 3 30 8 31 94
8 96 12 97 170 1 115 -1 134 -18 156 -15 18 -27 23 -51 21 -29 -3 -31 -1 -34
35 -3 29 0 37 13 37 27 0 71 37 88 73 15 31 34 38 78 28 3 0 6 -342 6 -758
l-1 -758 31 -3 c30 -3 31 -2 97 152 69 160 71 167 59 165 -5 -1 -18 -1 -30 0
-22 1 -23 4 -23 99 l0 98 93 -1 92 -1 0 -99 0 -100 -27 1 c-16 1 -28 -3 -28
-9 0 -14 122 -299 126 -294 11 11 123 291 118 296 -3 3 -18 6 -32 6 l-27 1 -3
100 -3 100 101 1 100 0 0 -104 c0 -77 -3 -103 -12 -102 -59 7 -59 8 7 -146 35
-80 66 -147 70 -148 4 -1 15 18 25 43 10 25 39 94 64 154 l46 108 -31 -4 c-21
-3 -33 0 -37 10 -4 12 -6 120 -3 176 1 10 23 13 96 13 52 0 96 -3 96 -6 1 -3
2 -48 3 -98 1 -77 -1 -93 -14 -95 -8 0 -20 -2 -27 -2 -6 -1 -14 -4 -17 -7 -3
-3 23 -72 58 -153 35 -82 66 -144 69 -140 8 14 104 256 112 282 6 19 3 22 -23
22 l-30 0 -1 95 c-1 84 1 95 16 96 25 1 135 1 154 0 13 -1 16 -16 15 -94 0
-94 -6 -111 -38 -101 -10 3 -18 3 -18 -1 0 -3 30 -76 67 -161 l66 -155 31 3
31 3 0 760 0 760 30 1 c40 1 55 -5 55 -22 0 -20 68 -84 90 -84 16 0 20 -7 20
-35 0 -33 -2 -35 -33 -35 -62 0 -72 -23 -72 -176 0 -150 7 -166 67 -169 29 -1
33 -5 33 -31 0 -26 -4 -29 -39 -35 -38 -6 -55 -20 -57 -49 0 -8 -2 -64 -3
-125 -3 -150 12 -176 92 -166 7 1 12 -10 12 -29 0 -22 -5 -30 -17 -31 -81 -3
-86 -14 -87 -173 0 -151 4 -163 65 -172 36 -6 39 -9 39 -40 0 -27 -4 -34 -19
-34 -31 0 -80 -48 -91 -89 -28 -106 64 -194 170 -162 55 16 85 62 85 127 0 56
-15 82 -69 115 -39 24 -45 78 -9 80 32 2 35 3 58 16 18 11 20 24 23 150 3 153
-5 176 -56 179 -15 1 -32 3 -38 3 -6 1 -10 13 -9 29 1 24 5 27 35 29 60 3 70
26 70 172 0 150 -9 171 -69 171 -35 0 -37 2 -37 30 0 22 5 30 18 31 51 4 76
18 81 47 3 15 5 79 6 142 0 104 -2 117 -21 137 -14 15 -33 23 -54 23 -31 0
-33 2 -32 33 1 25 7 35 32 47 39 19 76 74 76 112 0 141 -180 190 -249 68 -20
-36 -26 -40 -60 -40 -35 0 -38 2 -36 28 1 15 75 148 163 297 l161 270 -82 47
c-45 27 -85 48 -90 48 -20 0 -17 -33 6 -60 38 -44 50 -91 37 -138 -15 -58 -33
-69 -76 -49 -38 19 -73 80 -74 130 0 17 -5 27 -15 27 -8 0 -15 -3 -16 -7 0 -5
-2 -36 -4 -71 -4 -71 -19 -125 -41 -142 -16 -14 -19 -40 -5 -40 5 0 33 14 61
32 56 35 82 32 88 -10 5 -31 -72 -103 -141 -135 -85 -39 -137 -39 -171 -2 -31
33 -39 75 -19 97 11 12 13 27 9 53 -6 31 -3 40 23 65 36 37 60 38 93 5 22 -22
27 -23 38 -11 6 9 12 36 13 62 2 60 -18 70 -92 44 l-53 -17 7 21 c30 92 29
216 -1 216 -40 0 -104 -111 -104 -179 0 -25 -1 -24 -40 14 -54 53 -83 56 -104
11 -23 -50 -21 -68 7 -57 33 13 66 -5 82 -44 17 -39 20 -85 5 -85 -14 0 -42
-60 -37 -80 6 -23 -55 -58 -116 -66 -77 -11 -130 38 -161 147 -35 124 -28 156
27 137 32 -11 55 -32 93 -83 11 -16 25 -26 31 -22 5 3 13 45 16 91 3 47 11
103 18 126 17 55 3 62 -34 19 -39 -44 -59 -55 -114 -58 -43 -3 -43 -2 -43 32
0 48 38 91 103 115 53 20 71 44 41 56 -9 4 -32 2 -50 -4 -61 -20 -229 -18
-321 5 -15 3 -25 -1 -32 -14z m424 -645 c28 -4 61 -9 75 -12 14 -2 39 -7 55
-10 48 -8 105 -23 188 -50 57 -19 77 -30 77 -43 0 -17 -36 -18 -615 -18 -508
0 -615 2 -615 13 0 7 12 20 28 27 28 14 193 62 247 72 57 10 160 25 195 28 58
4 311 0 365 -7z m-1076 -132 c38 -31 39 -44 5 -44 -21 0 -25 -4 -22 -22 2 -17
9 -23 26 -22 29 2 28 -11 -4 -41 -34 -32 -44 -31 -44 0 0 14 -6 25 -13 25 -20
0 -36 -21 -30 -37 5 -13 2 -13 -14 -5 -45 24 -61 77 -38 123 28 53 86 63 134
23z m1820 11 c26 -13 51 -58 51 -91 0 -18 -50 -75 -60 -69 -5 3 -7 13 -5 23 2
13 -4 18 -21 20 -18 1 -24 -3 -24 -18 0 -30 -18 -33 -45 -6 -31 31 -32 48 -2
44 16 -2 23 3 25 20 3 18 -1 22 -22 22 -34 0 -33 13 5 44 35 30 58 32 98 11z
m-1566 -60 c30 -29 -2 -73 -43 -60 -38 12 -25 75 15 75 7 0 20 -7 28 -15z
m317 0 c26 -32 -13 -81 -47 -59 -35 22 -23 74 17 74 10 0 23 -7 30 -15z m320
0 c17 -21 -2 -65 -28 -65 -22 0 -42 19 -42 40 0 37 47 53 70 25z m311 -1 c25
-22 7 -63 -28 -64 -13 0 -43 27 -43 40 0 12 29 40 42 40 6 0 19 -7 29 -16z
m317 4 c7 -7 12 -22 12 -35 0 -31 -47 -44 -67 -18 -17 24 -16 30 3 49 19 19
36 20 52 4z m-1048 -188 l0 -100 -93 0 -92 0 0 100 -1 100 93 0 93 0 0 -100z
m323 13 c0 -49 -2 -94 -2 -100 -1 -10 -28 -13 -101 -13 l-100 0 0 100 0 100
103 0 102 0 -2 -87z m323 -3 c0 -47 -2 -91 -4 -97 -3 -9 -32 -13 -98 -13 l-94
0 0 100 0 101 97 -3 98 -3 1 -85z m314 -10 l0 -100 -94 0 -93 0 0 100 1 100
93 0 93 0 0 -100z m-1514 -107 c1 -7 2 -17 3 -22 2 -19 36 -4 39 17 2 16 10
22 27 22 13 0 26 -4 29 -9 3 -5 7 -53 8 -106 1 -74 -2 -99 -13 -106 -24 -15
-39 -10 -49 16 -11 28 -36 25 -45 -6 -7 -20 -40 -26 -50 -9 -9 14 -9 196 0
210 9 15 50 9 51 -7z m1844 -8 c3 -11 11 -20 18 -19 6 1 16 2 21 3 5 0 8 9 7
18 -1 20 31 30 46 15 11 -11 13 -200 3 -211 -8 -7 -54 -9 -53 -2 0 3 0 13 -1
23 -1 22 -38 12 -44 -12 -3 -11 -13 -17 -28 -16 -23 1 -24 4 -27 100 -1 55 0
106 3 113 7 21 48 11 55 -12z m-1508 -22 c23 -26 7 -63 -26 -63 -39 0 -55 51
-22 72 18 12 32 9 48 -9z m316 5 c22 -22 14 -57 -13 -64 -45 -11 -71 29 -39
60 19 19 36 20 52 4z m316 -4 c29 -29 12 -64 -31 -64 -31 0 -44 47 -18 67 24
17 30 16 49 -3z m312 8 c32 -21 18 -72 -21 -72 -33 0 -49 30 -29 58 16 23 31
27 50 14z m322 -1 c8 -5 12 -21 10 -37 -2 -22 -9 -30 -27 -32 -29 -4 -53 22
-44 46 11 30 36 39 61 23z m-1048 -191 c0 -55 -4 -100 -10 -102 -5 -1 -47 -2
-92 0 l-83 3 1 87 c1 48 2 92 3 98 0 7 34 11 91 11 l90 0 0 -97z m321 81 c1
-24 1 -143 0 -166 -1 -20 -7 -21 -98 -20 l-98 1 -1 94 c0 52 1 98 2 101 2 3
46 6 99 6 80 0 95 -2 96 -16z m324 -71 c1 -124 8 -116 -98 -115 l-92 0 -3 103
-3 103 98 -3 98 -3 0 -85z m315 -11 l0 -97 -75 -4 c-115 -5 -111 -9 -109 102
1 52 2 96 3 96 0 1 42 1 91 1 l90 -1 0 -97z m-1180 -139 c26 -26 12 -60 -25
-60 -35 0 -52 36 -29 61 22 24 29 24 54 -1z m311 10 c23 -13 25 -37 3 -61 -20
-23 -51 -13 -59 19 -5 19 -2 30 11 39 21 16 21 16 45 3z m323 -6 c29 -29 12
-64 -31 -64 -31 0 -44 47 -18 67 24 17 30 16 49 -3z m318 -1 c23 -26 7 -63
-27 -63 -34 0 -50 37 -27 63 8 9 20 17 27 17 7 0 19 -8 27 -17z m309 7 c24
-14 25 -56 1 -69 -28 -15 -65 14 -56 42 6 19 21 36 32 37 2 0 12 -5 23 -10z
m-1592 -57 c-1 -5 -1 -15 0 -25 2 -23 41 -11 41 13 0 14 7 19 30 19 l30 0 0
-109 c0 -95 -2 -109 -17 -113 -29 -8 -43 2 -43 29 0 20 -4 24 -22 21 -18 -2
-23 -9 -21 -28 1 -21 -3 -25 -23 -25 -13 1 -27 4 -30 8 -3 3 -6 41 -6 84 0
139 -2 133 32 133 17 0 29 -3 29 -7z m1841 -13 c0 -15 7 -20 24 -20 19 0 24 4
21 20 -3 16 2 20 26 20 32 0 31 6 31 -115 0 -104 0 -102 -21 -108 -19 -5 -43
5 -42 17 4 26 -2 36 -18 36 -14 0 -21 -8 -23 -27 -3 -27 -8 -29 -48 -24 -6 0
-10 45 -10 111 l0 110 30 0 c23 0 30 -4 30 -20z m-1298 -29 c11 -2 14 -191 3
-192 -47 -4 -167 -4 -173 1 -14 9 -9 184 5 190 10 4 138 5 165 1z m328 -96 l0
-101 -92 2 c-51 1 -95 2 -98 3 -5 1 -6 176 -1 191 0 3 44 5 96 5 l95 0 0 -100z
m315 96 c14 -1 14 -191 0 -192 -44 -5 -178 -3 -181 3 -6 10 -6 176 0 186 4 6
138 9 181 3z m318 0 c4 0 6 -45 5 -98 l-3 -98 -75 2 c-41 0 -82 1 -90 2 -13 1
-16 17 -14 99 1 53 2 97 3 97 3 1 167 -3 174 -4z m-1160 -267 c-3 -8 -14 -19
-24 -25 -14 -7 -23 -5 -39 11 -25 25 -22 41 11 57 21 11 26 10 41 -8 9 -11 14
-27 11 -35z m300 42 c21 -16 22 -40 2 -60 -23 -22 -64 -2 -65 31 0 13 27 43
38 43 4 0 15 -7 25 -14z m333 -44 c-9 -26 -42 -34 -61 -15 -38 38 10 91 49 53
12 -11 16 -25 12 -38z m322 20 c2 -6 -6 -20 -18 -32 -16 -16 -25 -18 -39 -11
-29 16 -33 39 -10 62 18 18 23 19 42 6 11 -7 23 -19 25 -25z m313 7 c7 -14 5
-23 -12 -40 -18 -18 -23 -19 -41 -7 -28 19 -31 45 -6 62 24 17 44 11 59 -15z
m-1616 -132 c8 -30 45 -31 45 -1 0 17 6 21 28 20 l27 -1 0 -110 c0 -107 -1
-110 -23 -113 -17 -3 -25 2 -29 18 -6 24 -48 25 -48 0 0 -18 -33 -26 -48 -11
-12 12 -16 179 -5 204 13 25 46 22 53 -6z m1845 4 c0 -10 9 -21 19 -24 14 -3
21 2 25 19 7 25 39 33 52 13 11 -18 8 -199 -3 -210 -16 -16 -48 -6 -47 14 2
14 -4 17 -25 15 -19 -2 -25 -8 -23 -21 3 -15 -2 -18 -25 -15 l-28 3 -3 99 c-1
55 -1 104 1 111 3 6 16 11 31 13 20 1 26 -3 26 -17z m-1755 -406 c40 -39 37
-88 -7 -129 -46 -42 -104 -30 -136 30 -44 82 77 165 143 99z m1828 5 c32 -26
41 -62 23 -103 -33 -80 -152 -67 -168 18 -6 30 15 80 39 94 29 17 78 13 106
-9z"/>
<path d="M1075 2117 c-39 -29 6 -89 49 -65 29 16 14 78 -19 78 -6 0 -19 -6
-30 -13z"/>
<path d="M1506 2114 c-21 -21 -20 -37 4 -59 18 -17 21 -17 45 -1 29 19 30 24
9 54 -18 26 -37 28 -58 6z"/>
<path d="M697 2047 c-32 -24 -20 -77 18 -77 12 0 28 7 35 15 26 31 -21 87 -53
62z"/>
<path d="M1896 2048 c-19 -11 -21 -49 -4 -66 30 -30 75 0 64 42 -7 27 -35 38
-60 24z"/>
</g>
</svg>
